<?xml version="1.0" encoding="utf-8"?>
<!-- Generator: Adobe Illustrator 16.0.0, SVG Export Plug-In . SVG Version: 6.00 Build 0)  -->
<!DOCTYPE svg PUBLIC "-//W3C//DTD SVG 1.1//EN" "http://www.w3.org/Graphics/SVG/1.1/DTD/svg11.dtd">
<svg version="1.1" id="Layer_1" xmlns="http://www.w3.org/2000/svg" xmlns:xlink="http://www.w3.org/1999/xlink" x="0px" y="0px"
	 width="24px" height="24px" viewBox="0 0 24 24" enable-background="new 0 0 24 24" xml:space="preserve">
<path fill="#824BA0" d="M15,21c0,1.598-1.393,3-2.971,3S9,22.598,9,21H15z M15.137,3.945c-0.644-0.374-1.041-1.07-1.041-1.82V2.122
	C14.098,0.95,13.158,0,12,0S9.903,0.95,9.903,2.122v0.003c0.001,0.751-0.396,1.446-1.041,1.82C4.194,6.654,6.877,15.66,2,17.251V19
	h20v-1.749C17.123,15.66,19.807,6.653,15.137,3.945z M12,1c0.552,0,1,0.449,1,1c0,0.552-0.448,1-1,1s-1-0.448-1-1
	C11,1.449,11.448,1,12,1z M5.549,17c1.189-1.667,1.605-3.891,1.964-5.815c0.447-2.39,0.869-4.648,2.354-5.509
	c1.38-0.801,2.956-0.76,4.267,0c1.485,0.861,1.907,3.119,2.354,5.509c0.359,1.924,0.774,4.148,1.964,5.815H5.549z M20.777,9.321
	c0.181,0.721,0.051,1.446-0.303,2.035l0.969,0.584c0.505-0.838,0.688-1.869,0.434-2.892c-0.255-1.024-0.9-1.848-1.738-2.351
	l-0.582,0.97C20.145,8.022,20.6,8.601,20.777,9.321z M21.174,4.975L20.577,5.97c1.022,0.616,1.812,1.623,2.125,2.874
	c0.312,1.251,0.085,2.51-0.53,3.534l0.994,0.599c0.536-0.893,0.835-1.927,0.835-3C24,7.996,22.991,6.067,21.174,4.975z M4.444,7.667
	l-0.582-0.97C3.023,7.201,2.378,8.024,2.123,9.048c-0.255,1.023-0.071,2.053,0.433,2.892l0.97-0.584
	c-0.354-0.588-0.484-1.314-0.304-2.035C3.401,8.601,3.855,8.022,4.444,7.667z M0,9.975c0,1.074,0.299,2.108,0.835,3l0.994-0.598
	c-0.615-1.024-0.841-2.283-0.53-3.534C1.611,7.592,2.4,6.585,3.423,5.97L2.826,4.975C1.009,6.067,0,7.996,0,9.975z"/>
</svg>
