<?xml version="1.0" encoding="utf-8"?>
<!-- Generator: Adobe Illustrator 16.0.0, SVG Export Plug-In . SVG Version: 6.00 Build 0)  -->
<!DOCTYPE svg PUBLIC "-//W3C//DTD SVG 1.1//EN" "http://www.w3.org/Graphics/SVG/1.1/DTD/svg11.dtd">
<svg version="1.1" id="Layer_1" xmlns="http://www.w3.org/2000/svg" xmlns:xlink="http://www.w3.org/1999/xlink" x="0px" y="0px"
	 width="1172.646px" height="1407.174px" viewBox="0 0 1172.646 1407.174" enable-background="new 0 0 1172.646 1407.174"
	 xml:space="preserve">
<path fill="#834C9E" d="M788.841,0C586.15,0,405.042,135.382,405.042,320.527c0,65.676,23.62,130.235,65.477,180.191
	c1.687,58.691-32.728,142.776-63.79,204.012c83.201-15.17,201.581-48.355,255.174-81.25c45.23,11.053,88.746,16.091,129.746,16.091
	c226.628,0,380.996-154.971,380.996-319.099C1172.646,134.439,990.335,0,788.841,0z M653.54,396.107
	c-12.136,9.679-29.198,14.545-50.958,14.545c-18.667,0-35.325-3.578-49.611-10.794l8.013-31.779
	c14.545,7.329,29.117,11.026,44.12,11.026c8.531,0,15.229-1.573,20.037-4.866c9.28-6.272,9.851-18.926,0.689-26.142
	c-4.354-3.406-11.796-6.925-22.558-10.503c-32.183-10.708-48.215-27.43-48.215-50.301c0-14.776,5.987-26.912,17.784-36.478
	c11.764-9.533,27.624-14.281,47.321-14.281c17.18,0,32.064,2.861,45.003,8.73l-8.757,30.717
	c-11.684-5.497-24.051-8.218-36.764-8.218c-7.787,0-13.909,1.52-18.322,4.526c-8.816,5.982-8.585,16.69-1.029,23.103
	c3.61,3.094,12.481,7.216,26.681,12.195c15.574,5.497,26.913,12.314,34.242,20.44c7.216,8.159,10.767,18.269,10.767,30.351
	C671.862,373.834,665.794,386.434,653.54,396.107z M848.163,407.963v-0.06c-2.689-66.904-3.95-112.28-3.95-136.099h-0.803
	c-4.01,17.945-17.751,62.41-40.994,133.351h-30.232c-13.974-48.9-34.586-133.297-34.586-133.297h-0.458l-6.014,136.104H695.11
	l10.767-168.568h52.446l29.773,116.263l35.961-116.263h53.137l9.047,168.568H848.163z M1011.294,396.883
	c-12.256,9.792-29.607,14.717-51.535,14.717c-17.865,0-34.582-3.179-50.613-11.139l8.471-33.67
	c14.087,7.216,28.514,11.451,44.664,11.451c8.358,0,14.943-1.601,19.524-4.748c8.876-5.987,9.216-17.897,0.685-24.623
	c-4.295-3.352-11.737-6.817-22.213-10.396c-32.523-10.788-49.014-27.969-49.014-51.13c0-14.944,6.127-27.484,18.264-37.157
	c11.91-9.679,28.001-14.545,47.752-14.545c17.234,0,32.522,2.921,45.348,8.79l0.744,0.345l-9.274,32.604
	c-11.851-5.578-23.647-8.617-37.329-8.617c-7.562,0-13.629,1.461-17.924,4.354c-8.246,5.61-8.133,15.634-0.916,21.615
	c3.551,3.007,12.426,7.098,26.341,12.023c15.688,5.524,27.312,12.481,34.581,20.699c7.329,8.332,11.107,18.636,11.107,30.922
	C1029.956,374.066,1023.661,387.032,1011.294,396.883z"/>
<path fill="#CCCCCC" d="M586.323,780.768v274.612H117.265V469.058h200.174c-29.774-73.808-38.537-153.279-19.815-234.529H117.265
	C52.473,234.529,0,287.061,0,351.793v860.591c-0.119,129.745,146.753,194.79,352.133,194.79c205.1,0,351.454-64.819,351.454-194.79
	V739.316C666.942,759.471,633.961,771.38,586.323,780.768z M351.793,1289.91c-32.409,0-58.632-26.282-58.632-58.632
	c0-32.351,26.223-58.633,58.632-58.633c32.404,0,58.632,26.282,58.632,58.633C410.426,1263.627,384.198,1289.91,351.793,1289.91z"/>
</svg>
