<?xml version="1.0" encoding="utf-8"?>
<!-- Generator: Adobe Illustrator 16.0.0, SVG Export Plug-In . SVG Version: 6.00 Build 0)  -->
<!DOCTYPE svg PUBLIC "-//W3C//DTD SVG 1.1//EN" "http://www.w3.org/Graphics/SVG/1.1/DTD/svg11.dtd">
<svg version="1.1" id="Layer_1" xmlns="http://www.w3.org/2000/svg" xmlns:xlink="http://www.w3.org/1999/xlink" x="0px" y="0px"
	 width="1541.983px" height="767.271px" viewBox="0 0 1541.983 767.271" enable-background="new 0 0 1541.983 767.271"
	 xml:space="preserve">
<path fill="#834C9E" d="M309.308,724.282C294.416,662.851,244.73,441.37,244.73,441.37c-9.545,11.896-24.097,19.188-39.991,19.188
	H51.19C22.948,460.558,0,437.618,0,409.375s22.948-51.183,51.19-51.183h116.658l39.494-118.564
	c7.899-23.593,26.693-34.94,45.383-34.94c20.544,0,41.089,13.743,46.889,40.036c11.147,50.137,49.084,225.432,49.084,225.432
	s55.084-370.037,62.879-426.174C415.625,14.945,438.469,0,461.365,0c21.39,0,42.684,13.046,48.735,39.887l63.933,337.7
	c9.493-12,24.193-19.395,40.184-19.395h153.557c28.243,0,51.184,22.939,51.184,51.183s-22.94,51.183-51.184,51.183H651.107
	L611.672,579.13c-16.25,48.58-75.784,52.48-90.225-5.104c-14.997-60.031-55.989-255.922-55.989-255.922
	s-49.232,347.349-57.077,403.679c-4.102,29.245-26.789,45.487-49.737,45.487C337.603,767.322,316.406,753.772,309.308,724.282z"/>
<path fill="#834C9E" d="M1032.334,724.282c-14.893-61.432-64.577-282.912-64.577-282.912c-9.546,11.896-24.097,19.188-39.991,19.188
	H774.217c-28.243,0-51.19-22.939-51.19-51.183s22.948-51.183,51.19-51.183h116.658l39.494-118.564
	c7.898-23.593,26.693-34.94,45.383-34.94c20.545,0,41.09,13.743,46.889,40.036c11.148,50.137,49.084,225.432,49.084,225.432
	s55.084-370.037,62.879-426.174C1138.652,14.945,1161.496,0,1184.391,0c21.391,0,42.684,13.046,48.736,39.887l63.932,337.7
	c9.494-12,24.193-19.395,40.184-19.395h153.557c28.244,0,51.184,22.939,51.184,51.183s-22.939,51.183-51.184,51.183h-116.666
	l-39.434,118.572c-16.25,48.58-75.785,52.48-90.225-5.104c-14.997-60.031-55.99-255.922-55.99-255.922
	s-49.232,347.349-57.076,403.679c-4.102,29.245-26.789,45.487-49.737,45.487C1060.629,767.322,1039.432,753.772,1032.334,724.282z"
	/>
</svg>
