<?xml version="1.0" encoding="utf-8"?>
<!-- Generator: Adobe Illustrator 16.0.0, SVG Export Plug-In . SVG Version: 6.00 Build 0)  -->
<!DOCTYPE svg PUBLIC "-//W3C//DTD SVG 1.1//EN" "http://www.w3.org/Graphics/SVG/1.1/DTD/svg11.dtd">
<svg version="1.1" id="Layer_1" xmlns="http://www.w3.org/2000/svg" xmlns:xlink="http://www.w3.org/1999/xlink" x="0px" y="0px"
	 width="24px" height="24px" viewBox="0 0 24 24" enable-background="new 0 0 24 24" xml:space="preserve">
<path fill="#824BA0" d="M10.043,18.152c-0.291-1.2-1.262-5.527-1.262-5.527C8.595,12.857,8.31,13,8,13H5c-0.552,0-1-0.448-1-1
	s0.448-1,1-1h2.279l0.771-2.316c0.154-0.461,0.521-0.683,0.886-0.683c0.402,0,0.803,0.269,0.917,0.782
	c0.217,0.979,0.958,4.404,0.958,4.404s1.077-7.229,1.229-8.327c0.079-0.567,0.525-0.859,0.973-0.859
	c0.418,0,0.834,0.255,0.952,0.779l1.249,6.598C15.4,11.145,15.688,11,16,11h3c0.552,0,1,0.448,1,1s-0.448,1-1,1h-2.279l-0.771,2.316
	c-0.317,0.949-1.48,1.025-1.763-0.1c-0.293-1.173-1.094-5-1.094-5s-0.962,6.786-1.115,7.887c-0.08,0.571-0.524,0.889-0.972,0.889
	C10.596,18.993,10.182,18.729,10.043,18.152z M2,12c0,5.514,4.486,10,10,10c5.514,0,10-4.486,10-10c0-5.514-4.486-10-10-10
	C6.486,2,2,6.486,2,12z M24,12c0,6.627-5.373,12-12,12S0,18.627,0,12S5.373,0,12,0S24,5.373,24,12z"/>
</svg>
