<?xml version="1.0" encoding="utf-8"?>
<!-- Generator: Adobe Illustrator 16.0.0, SVG Export Plug-In . SVG Version: 6.00 Build 0)  -->
<!DOCTYPE svg PUBLIC "-//W3C//DTD SVG 1.1//EN" "http://www.w3.org/Graphics/SVG/1.1/DTD/svg11.dtd">
<svg version="1.1" id="Layer_1" xmlns="http://www.w3.org/2000/svg" xmlns:xlink="http://www.w3.org/1999/xlink" x="0px" y="0px"
	 width="242.735px" height="425.887px" viewBox="0 0 242.735 425.887" enable-background="new 0 0 242.735 425.887"
	 xml:space="preserve">
<g>
	
		<rect id="XMLID_1_" x="68.113" y="206.024" transform="matrix(0.403 -0.9152 0.9152 0.403 -122.6299 236.9813)" fill="#D1D2D1" width="104.453" height="12.933"/>
	
		<rect x="92.809" y="51.148" transform="matrix(-0.403 0.9152 -0.9152 -0.403 326.9484 -32.833)" fill="#D1D2D1" width="162.747" height="78.144"/>
	<path fill="#D1D2D1" d="M181.151,310.249l24.819-56.362l8.044,3.541c-0.157,3.707,1.932,7.302,5.529,8.887
		c4.69,2.065,10.168-0.062,12.23-4.752c2.065-4.689-0.062-10.164-4.752-12.23c-3.6-1.584-7.66-0.697-10.288,1.921l-8.042-3.542
		l24.82-56.362c-22.458,0.924-44.771,15.351-57.307,38.678l-4.116-1.812l9.576-21.749L84.39,163.626l-18.505,7.188l-13.559,30.793
		l7.833,20.16l96.127,42.332l10.59-24.051l4.119,1.814C162.248,266.857,166.673,293.061,181.151,310.249z"/>
	<g opacity="0.3">
		
			<rect x="211.683" y="34.416" transform="matrix(-0.403 0.9152 -0.9152 -0.403 350.6521 -140.7816)" fill="#53318E" width="19.118" height="19.117"/>
		
			<rect x="189.246" y="24.536" transform="matrix(-0.403 0.9152 -0.9152 -0.403 310.1368 -134.1064)" fill="#53318E" width="19.12" height="19.118"/>
		
			<rect x="166.914" y="14.702" transform="matrix(-0.403 0.9152 -0.9152 -0.403 269.8002 -127.4669)" fill="#53318E" width="19.118" height="19.117"/>
		
			<rect x="201.754" y="56.829" transform="matrix(-0.403 0.9152 -0.9152 -0.403 357.2228 -100.2549)" fill="#53318E" width="19.116" height="19.117"/>
		
			<rect x="179.315" y="46.949" transform="matrix(-0.403 0.9152 -0.9152 -0.403 316.7104 -93.574)" fill="#53318E" width="19.118" height="19.119"/>
		
			<rect x="156.982" y="37.115" transform="matrix(-0.403 0.9152 -0.9152 -0.403 276.3782 -86.9306)" fill="#53318E" width="19.118" height="19.118"/>
		
			<rect x="191.949" y="79.3" transform="matrix(-0.4031 0.9152 -0.9152 -0.4031 364.0548 -59.7339)" fill="#53318E" width="19.117" height="19.116"/>
		
			<rect x="169.513" y="69.419" transform="matrix(-0.403 0.9152 -0.9152 -0.403 323.5179 -53.0797)" fill="#53318E" width="19.117" height="19.118"/>
		
			<rect x="147.178" y="59.586" transform="matrix(-0.4031 0.9152 -0.9152 -0.4031 283.1896 -46.4294)" fill="#53318E" width="19.118" height="19.115"/>
		
			<rect x="182.017" y="101.714" transform="matrix(-0.403 0.9152 -0.9152 -0.403 370.6222 -19.2105)" fill="#53318E" width="19.118" height="19.119"/>
		
			<rect x="159.581" y="91.834" transform="matrix(-0.403 0.9152 -0.9152 -0.403 330.1006 -12.5391)" fill="#53318E" width="19.117" height="19.117"/>
		
			<rect x="137.248" y="81.999" transform="matrix(-0.403 0.9152 -0.9152 -0.403 289.7635 -5.901)" fill="#53318E" width="19.117" height="19.118"/>
		
			<rect x="172.084" y="124.129" transform="matrix(-0.403 0.9152 -0.9152 -0.403 377.1963 21.321)" fill="#53318E" width="19.12" height="19.117"/>
		
			<rect x="149.651" y="114.247" transform="matrix(-0.403 0.9152 -0.9152 -0.403 336.6734 27.9824)" fill="#53318E" width="19.117" height="19.118"/>
		
			<rect x="127.315" y="104.414" transform="matrix(-0.4031 0.9152 -0.9152 -0.4031 296.3478 34.6484)" fill="#53318E" width="19.118" height="19.117"/>
		
			<rect x="162.155" y="146.542" transform="matrix(-0.403 0.9152 -0.9152 -0.403 383.7816 61.8657)" fill="#53318E" width="19.116" height="19.119"/>
		
			<rect x="139.719" y="136.662" transform="matrix(-0.403 0.9152 -0.9152 -0.403 343.2562 68.526)" fill="#53318E" width="19.118" height="19.118"/>
		
			<rect x="117.385" y="126.828" transform="matrix(-0.4031 0.9152 -0.9152 -0.4031 302.9248 75.1817)" fill="#53318E" width="19.117" height="19.116"/>
	</g>
	<path fill="#C9C9C9" d="M211.393,240.86l21.855-49.628c-22.456,0.924-44.772,15.35-57.305,38.678l-4.119-1.813l9.578-21.748
		L84.125,163.51l-18.503,7.19l-12.864,29.211L211.393,240.86z"/>
	
		<rect x="-12.819" y="296.594" transform="matrix(0.403 -0.9152 0.9152 0.403 -266.2737 263.1254)" fill="#D1D2D1" width="162.747" height="78.145"/>
	<g opacity="0.3">
		
			<rect x="56.654" y="392.046" transform="matrix(0.403 -0.9152 0.9152 0.403 -328.0197 300.3575)" fill="#53318E" width="19.118" height="19.117"/>
		
			<rect x="34.219" y="382.166" transform="matrix(0.4031 -0.9152 0.9152 0.4031 -332.3646 273.9016)" fill="#53318E" width="19.118" height="19.118"/>
		
			<rect x="11.884" y="372.331" transform="matrix(0.403 -0.9152 0.9152 0.403 -336.7057 247.6149)" fill="#53318E" width="19.117" height="19.118"/>
		
			<rect x="66.484" y="369.588" transform="matrix(0.4031 -0.9151 0.9151 0.4031 -301.5855 295.8875)" fill="#53318E" width="19.116" height="19.119"/>
		
			<rect x="44.048" y="359.707" transform="matrix(0.403 -0.9152 0.9152 0.403 -305.9459 269.4987)" fill="#53318E" width="19.116" height="19.118"/>
		
			<rect x="21.713" y="349.873" transform="matrix(0.403 -0.9152 0.9152 0.403 -310.2807 243.1954)" fill="#53318E" width="19.116" height="19.116"/>
		
			<rect x="76.44" y="347.185" transform="matrix(0.403 -0.9152 0.9152 0.403 -275.1498 291.6769)" fill="#53318E" width="19.116" height="19.118"/>
		
			<rect x="54.005" y="337.304" transform="matrix(0.403 -0.9152 0.9152 0.403 -279.5052 265.2611)" fill="#53318E" width="19.116" height="19.118"/>
		
			<rect x="31.67" y="327.468" transform="matrix(0.4031 -0.9152 0.9152 0.4031 -283.8276 238.9173)" fill="#53318E" width="19.118" height="19.118"/>
		
			<rect x="86.269" y="324.726" transform="matrix(0.403 -0.9152 0.9152 0.403 -248.7273 287.2639)" fill="#53318E" width="19.117" height="19.118"/>
		
			<rect x="63.833" y="314.845" transform="matrix(0.4031 -0.9152 0.9152 0.4031 -253.0762 260.8176)" fill="#53318E" width="19.117" height="19.118"/>
		
			<rect x="41.499" y="305.011" transform="matrix(0.4031 -0.9152 0.9152 0.4031 -257.4062 234.5002)" fill="#53318E" width="19.117" height="19.118"/>
		
			<rect x="96.098" y="302.267" transform="matrix(0.403 -0.9152 0.9152 0.403 -222.3046 282.8584)" fill="#53318E" width="19.118" height="19.116"/>
		
			<rect x="73.662" y="292.386" transform="matrix(0.403 -0.9152 0.9152 0.403 -226.655 256.4118)" fill="#53318E" width="19.118" height="19.117"/>
		
			<rect x="51.329" y="282.551" transform="matrix(0.4031 -0.9152 0.9152 0.4031 -230.9844 230.0896)" fill="#53318E" width="19.117" height="19.119"/>
		
			<rect x="105.927" y="279.807" transform="matrix(0.403 -0.9152 0.9152 0.403 -195.8831 278.4597)" fill="#53318E" width="19.119" height="19.118"/>
		
			<rect x="83.492" y="269.927" transform="matrix(0.403 -0.9152 0.9152 0.403 -200.233 252.0014)" fill="#53318E" width="19.118" height="19.117"/>
		
			<rect x="61.158" y="260.092" transform="matrix(0.4031 -0.9152 0.9152 0.4031 -204.5629 225.6775)" fill="#53318E" width="19.118" height="19.119"/>
	</g>
</g>
</svg>
