<?xml version="1.0" encoding="utf-8"?>
<!-- Generator: Adobe Illustrator 16.0.0, SVG Export Plug-In . SVG Version: 6.00 Build 0)  -->
<!DOCTYPE svg PUBLIC "-//W3C//DTD SVG 1.1//EN" "http://www.w3.org/Graphics/SVG/1.1/DTD/svg11.dtd">
<svg version="1.1" id="Layer_1" xmlns="http://www.w3.org/2000/svg" xmlns:xlink="http://www.w3.org/1999/xlink" x="0px" y="0px"
	 width="798.395px" height="476.594px" viewBox="0 0 798.395 476.594" enable-background="new 0 0 798.395 476.594"
	 xml:space="preserve">
<g>
	<path fill="#D77228" d="M651.497,192.166l-64.181,30.188c-0.919,0.433-1.331,1.478-0.928,2.343l3.603,7.654
		c0.405,0.863,1.477,1.212,2.393,0.779l24.28-11.42l-0.313-0.661c-0.12-0.258-0.01-0.566,0.248-0.688l14.69-6.91
		c0.259-0.122,0.566-0.01,0.689,0.249l0.31,0.661l24.28-11.419c0.915-0.431,1.328-1.48,0.924-2.341l-3.6-7.657
		C653.484,192.083,652.414,191.734,651.497,192.166z"/>
	<circle fill="#D87328" cx="664.473" cy="201.087" r="10.163"/>
	<polygon fill="#9D4D23" points="667.37,207.36 660.493,206.731 657.597,200.46 661.58,194.815 668.455,195.444 671.351,201.715 	
		"/>
	<polygon fill="#A2A0A0" points="666.583,205.655 661.573,205.196 659.465,200.631 662.363,196.521 667.374,196.976 
		669.483,201.545 	"/>
	<path fill="#D77228" d="M661.173,192.602c0.234,0.167,0.295,0.483,0.136,0.71l-5.221,7.398c-0.159,0.226-0.479,0.278-0.712,0.112
		l-7.619-5.377c-0.232-0.164-0.292-0.481-0.133-0.709l5.222-7.397c0.159-0.228,0.48-0.278,0.714-0.111L661.173,192.602z"/>
	<path fill="#D77228" d="M575.852,237.226c-0.431,5.595,3.755,10.482,9.354,10.911c5.594,0.433,10.48-3.754,10.915-9.35
		c0.428-5.596-3.76-10.482-9.355-10.914C581.171,227.441,576.284,231.629,575.852,237.226z"/>
	<polygon fill="#9D4D23" points="588.969,244.233 592.87,238.538 589.887,232.307 583.001,231.777 579.098,237.475 582.083,243.705 
			"/>
	<polygon fill="#A3A1A1" points="588.159,242.541 590.999,238.392 588.828,233.857 583.812,233.47 580.969,237.618 583.144,242.156 
			"/>
	<path fill="#D77228" d="M581.552,230.056c-0.021,0.282,0.184,0.532,0.465,0.554l9.024,0.695c0.278,0.021,0.519-0.189,0.542-0.476
		l0.717-9.297c0.02-0.287-0.188-0.531-0.462-0.554l-9.028-0.696c-0.275-0.021-0.519,0.192-0.542,0.477L581.552,230.056z"/>
	<path fill="#B5B5B6" d="M589.022,236.577c0.79,1.677,0.069,3.677-1.608,4.466c-1.677,0.791-3.681,0.072-4.468-1.609
		c-0.79-1.677-0.068-3.676,1.605-4.466C586.233,234.177,588.232,234.898,589.022,236.577z"/>
	<path fill="#B5B5B6" d="M667.515,199.656c0.787,1.681,0.066,3.679-1.61,4.47c-1.681,0.791-3.68,0.069-4.47-1.61
		c-0.79-1.678-0.069-3.679,1.61-4.468C664.722,197.257,666.724,197.98,667.515,199.656z"/>
	<path fill="#D77228" d="M561.316,190.413c-2.062,12.042-1.281,22.991,4.2,28.619c5.896,6.059,21.447,8.174,33.894,4.215
		C585.831,214.136,568.233,200.872,561.316,190.413z"/>
	<path fill="#F37421" d="M662.952,173.11c0.096-21.308-58.057-41.166-75.384-33.014c-17.329,8.151-37.683,63.681-22.644,79.122
		C586.194,241.055,662.815,203.241,662.952,173.11z"/>
	<circle fill="#B55F27" cx="637.684" cy="158.488" r="1.964"/>
	<path fill="#E2E41A" d="M638.808,157.958c0.296,0.621,0.027,1.364-0.595,1.657c-0.62,0.292-1.364,0.024-1.656-0.599
		c-0.293-0.621-0.025-1.365,0.596-1.655C637.775,157.068,638.516,157.334,638.808,157.958z"/>
	<path opacity="0.2" fill="#FFFFFF" d="M655.02,186.329c0,0,12.199-16.654-1.364-23.994
		C640.093,154.996,663.687,172.691,655.02,186.329z"/>
	<path opacity="0.2" fill="#FFFFFF" d="M605.778,144.655c0,0-18.01-10.094-23.652,4.259
		C576.483,163.265,591.193,137.698,605.778,144.655z"/>
</g>
<path fill="#333333" d="M305.817,31.398H9.047C4.051,31.398,0,34.297,0,37.875v80.298c0,3.577,4.051,6.476,9.047,6.476h296.771
	c4.997,0,9.047-2.898,9.047-6.476V37.875C314.864,34.297,310.814,31.398,305.817,31.398z M56.28,82.272c0,5.522-4.477,10-10,10
	h-8.499c-5.523,0-10-4.478-10-10v-8.499c0-5.522,4.477-10,10-10h8.499c5.523,0,10,4.478,10,10V82.272z"/>
<circle fill="#E1E31A" cx="294.833" cy="48.28" r="6.083"/>
<circle fill="#E1E31A" cx="274.833" cy="48.28" r="6.083"/>
<circle fill="#E1E31A" cx="254.833" cy="48.28" r="6.083"/>
<path fill="#333333" d="M305.817,134.648H9.047c-4.996,0-9.047,2.898-9.047,6.477v80.298c0,3.577,4.051,6.476,9.047,6.476h296.771
	c4.997,0,9.047-2.898,9.047-6.476v-80.298C314.864,137.547,310.814,134.648,305.817,134.648z M56.28,185.522c0,5.522-4.477,10-10,10
	h-8.499c-5.523,0-10-4.478-10-10v-8.499c0-5.522,4.477-10,10-10h8.499c5.523,0,10,4.478,10,10V185.522z"/>
<circle fill="#E1E31A" cx="294.833" cy="151.53" r="6.083"/>
<circle fill="#E1E31A" cx="274.833" cy="151.53" r="6.083"/>
<circle fill="#E1E31A" cx="254.833" cy="151.53" r="6.083"/>
<path fill="#333333" d="M305.817,237.898H9.047c-4.996,0-9.047,2.898-9.047,6.477v80.298c0,3.577,4.051,6.476,9.047,6.476h296.771
	c4.997,0,9.047-2.898,9.047-6.476v-80.298C314.864,240.797,310.814,237.898,305.817,237.898z M56.28,288.772c0,5.522-4.477,10-10,10
	h-8.499c-5.523,0-10-4.478-10-10v-8.499c0-5.522,4.477-10,10-10h8.499c5.523,0,10,4.478,10,10V288.772z"/>
<circle fill="#E1E31A" cx="294.833" cy="254.78" r="6.083"/>
<circle fill="#E1E31A" cx="274.833" cy="254.78" r="6.083"/>
<circle fill="#E1E31A" cx="254.833" cy="254.78" r="6.083"/>
<path fill="#333333" d="M305.817,341.148H9.047c-4.996,0-9.047,2.898-9.047,6.477v80.298c0,3.577,4.051,6.476,9.047,6.476h296.771
	c4.997,0,9.047-2.898,9.047-6.476v-80.298C314.864,344.047,310.814,341.148,305.817,341.148z M56.28,392.022c0,5.522-4.477,10-10,10
	h-8.499c-5.523,0-10-4.478-10-10v-8.499c0-5.522,4.477-10,10-10h8.499c5.523,0,10,4.478,10,10V392.022z"/>
<circle fill="#E1E31A" cx="294.833" cy="358.03" r="6.083"/>
<circle fill="#E1E31A" cx="274.833" cy="358.03" r="6.083"/>
<circle fill="#E1E31A" cx="254.833" cy="358.03" r="6.083"/>
<g>
	<g>
		<path fill="#333333" d="M341.001,79.421c0,0,0.804-1.087,2.426-3.036c1.64-1.931,4.038-4.786,7.321-8.205
			c3.276-3.424,7.321-7.542,12.26-11.948c4.914-4.434,10.624-9.279,17.19-14.147c6.562-4.865,13.869-9.93,22.022-14.62
			c8.135-4.707,16.971-9.319,26.526-13.206c2.369-1.017,4.818-1.898,7.26-2.852c2.473-0.868,4.95-1.789,7.495-2.563
			c5.054-1.663,10.266-3.059,15.557-4.314c10.61-2.381,21.611-4.013,32.695-4.385L495.906,0l4.154,0.011
			c2.771-0.025,5.532,0.161,8.29,0.271c2.756,0.152,5.5,0.417,8.234,0.655c2.724,0.352,5.452,0.61,8.139,1.08
			c2.688,0.456,5.374,0.852,8.01,1.442c1.321,0.274,2.64,0.547,3.954,0.819c1.31,0.297,2.604,0.633,3.898,0.957
			c1.292,0.333,2.585,0.643,3.862,0.994c1.27,0.375,2.535,0.75,3.797,1.123c2.534,0.708,5.002,1.558,7.449,2.395
			c9.771,3.397,18.91,7.463,27.231,11.9c2.064,1.139,4.153,2.163,6.11,3.35c1.973,1.156,3.916,2.294,5.826,3.413
			c3.731,2.377,7.384,4.594,10.692,7.014c1.669,1.187,3.333,2.303,4.901,3.474c1.562,1.178,3.087,2.329,4.574,3.451
			c0.742,0.561,1.475,1.114,2.197,1.661c0.705,0.569,1.4,1.132,2.086,1.686c1.371,1.104,2.699,2.183,3.973,3.242
			c5.044,4.302,9.344,8.141,12.767,11.427c3.467,3.237,6.017,5.959,7.804,7.756c1.774,1.811,2.721,2.776,2.721,2.776l-1.062,1.131
			c0,0-1.045-0.85-3.003-2.442c-1.966-1.581-4.788-3.968-8.552-6.786c-3.674-2.924-8.261-6.309-13.59-10.06
			c-5.365-3.699-11.407-7.876-18.31-11.899c-1.711-1.027-3.454-2.079-5.278-3.067c-1.805-1.016-3.645-2.051-5.516-3.104
			c-1.904-0.984-3.842-1.986-5.809-3.003c-1.948-1.049-4.018-1.928-6.062-2.921c-8.26-3.802-17.14-7.396-26.561-10.319
			c-2.354-0.735-4.723-1.483-7.149-2.09c-1.208-0.323-2.42-0.646-3.636-0.972c-1.222-0.301-2.457-0.561-3.69-0.845
			c-1.236-0.27-2.467-0.582-3.712-0.84c-1.25-0.237-2.503-0.476-3.76-0.715c-2.504-0.522-5.053-0.851-7.6-1.244
			c-10.205-1.497-20.695-1.969-31.155-1.616l-1.962,0.057l-1.959,0.126l-3.916,0.256c-2.603,0.265-5.209,0.473-7.796,0.823
			l-3.879,0.504c-1.29,0.179-2.571,0.414-3.855,0.617c-2.571,0.382-5.105,0.942-7.643,1.429
			c-10.113,2.141-19.928,5.011-29.206,8.454c-1.159,0.434-2.313,0.866-3.462,1.297c-1.138,0.459-2.272,0.917-3.4,1.372
			c-2.272,0.875-4.473,1.865-6.676,2.789c-4.361,1.949-8.601,3.937-12.65,6.037c-8.097,4.2-15.611,8.506-22.354,12.815
			c-6.719,4.341-12.792,8.498-18.012,12.418c-5.219,3.919-9.701,7.452-13.297,10.483c-3.594,3.031-6.384,5.47-8.238,7.187
			C341.967,78.476,341.001,79.421,341.001,79.421z"/>
		<g>
			<polygon fill="#333333" points="619.927,69.841 643.906,69.429 643.479,45.45 653.835,55.449 654.254,79.421 630.282,79.84 			
				"/>
		</g>
	</g>
</g>
<g>
	<g>
		<path fill="#333333" d="M654.254,397.173c0,0-0.804,1.087-2.427,3.036c-1.639,1.931-4.037,4.786-7.32,8.205
			c-3.277,3.424-7.321,7.542-12.26,11.948c-4.914,4.434-10.624,9.279-17.19,14.147c-6.562,4.865-13.869,9.929-22.021,14.62
			c-8.136,4.707-16.972,9.319-26.526,13.206c-2.369,1.017-4.818,1.898-7.26,2.852c-2.473,0.868-4.95,1.788-7.495,2.563
			c-5.054,1.663-10.266,3.059-15.556,4.314c-10.611,2.381-21.613,4.013-32.695,4.385l-4.154,0.144l-4.154-0.011
			c-2.77,0.025-5.531-0.161-8.29-0.271c-2.755-0.152-5.499-0.417-8.234-0.655c-2.723-0.352-5.452-0.61-8.139-1.08
			c-2.687-0.456-5.374-0.852-8.01-1.442c-1.321-0.274-2.64-0.547-3.954-0.819c-1.309-0.297-2.604-0.633-3.898-0.957
			c-1.292-0.333-2.585-0.643-3.862-0.994c-1.27-0.375-2.535-0.75-3.797-1.123c-2.533-0.708-5.001-1.558-7.448-2.395
			c-9.772-3.397-18.911-7.463-27.232-11.9c-2.065-1.139-4.153-2.163-6.111-3.35c-1.973-1.156-3.915-2.294-5.826-3.413
			c-3.731-2.377-7.384-4.594-10.693-7.014c-1.669-1.187-3.333-2.303-4.901-3.474c-1.562-1.178-3.087-2.329-4.575-3.451
			c-0.742-0.561-1.475-1.114-2.197-1.661c-0.705-0.569-1.4-1.132-2.085-1.686c-1.372-1.104-2.7-2.183-3.974-3.242
			c-5.043-4.302-9.343-8.141-12.766-11.427c-3.467-3.237-6.017-5.959-7.805-7.756c-1.774-1.811-2.72-2.776-2.72-2.776l1.062-1.131
			c0,0,1.044,0.85,3.003,2.442c1.966,1.581,4.788,3.968,8.552,6.786c3.673,2.924,8.26,6.309,13.59,10.061
			c5.365,3.698,11.407,7.875,18.309,11.898c1.711,1.027,3.455,2.079,5.278,3.067c1.806,1.016,3.645,2.051,5.516,3.104
			c1.905,0.984,3.842,1.986,5.809,3.003c1.949,1.049,4.018,1.928,6.063,2.921c8.259,3.803,17.139,7.396,26.56,10.319
			c2.354,0.735,4.723,1.483,7.15,2.09c1.207,0.323,2.419,0.646,3.635,0.972c1.222,0.301,2.457,0.561,3.69,0.845
			c1.236,0.27,2.467,0.582,3.713,0.84c1.249,0.237,2.503,0.476,3.759,0.715c2.504,0.522,5.053,0.851,7.6,1.244
			c10.206,1.497,20.696,1.969,31.155,1.616l1.963-0.057l1.959-0.126l3.916-0.256c2.602-0.265,5.209-0.473,7.795-0.823l3.879-0.504
			c1.291-0.179,2.571-0.414,3.855-0.617c2.571-0.382,5.105-0.942,7.643-1.429c10.113-2.141,19.928-5.011,29.207-8.454
			c1.158-0.434,2.312-0.866,3.461-1.297c1.139-0.459,2.272-0.917,3.4-1.372c2.272-0.875,4.474-1.865,6.676-2.789
			c4.361-1.949,8.602-3.937,12.65-6.037c8.097-4.2,15.611-8.506,22.354-12.815c6.719-4.341,12.791-8.498,18.012-12.418
			c5.219-3.919,9.701-7.453,13.297-10.483c3.594-3.031,6.384-5.47,8.238-7.187C653.288,398.118,654.254,397.173,654.254,397.173z"/>
		<g>
			<polygon fill="#333333" points="375.328,406.753 351.35,407.165 351.775,431.144 341.421,421.145 341.001,397.173 
				364.973,396.754 			"/>
		</g>
	</g>
</g>
<g>
	<path fill="#D77228" d="M772.362,246.947l-66.691-24.139c-0.955-0.344-1.986,0.102-2.313,0.999l-2.878,7.956
		c-0.324,0.895,0.183,1.899,1.138,2.243l25.229,9.132l0.247-0.688c0.098-0.267,0.394-0.405,0.661-0.309l15.266,5.525
		c0.27,0.098,0.406,0.393,0.311,0.663l-0.25,0.687l25.23,9.133c0.951,0.344,1.985-0.104,2.309-0.999l2.883-7.954
		C773.825,248.298,773.315,247.293,772.362,246.947z"/>
	<circle fill="#D87328" cx="775.206" cy="262.437" r="10.163"/>
	<polygon fill="#9D4D23" points="772.809,268.916 768.399,263.603 770.795,257.124 777.604,255.959 782.014,261.273 779.617,267.75 
			"/>
	<polygon fill="#A2A0A0" points="773.46,267.155 770.247,263.284 771.993,258.567 776.95,257.719 780.165,261.589 778.419,266.309 	
		"/>
	<path fill="#D77228" d="M778.884,254.108c0.05,0.284-0.133,0.551-0.406,0.597l-8.926,1.527c-0.271,0.046-0.533-0.144-0.582-0.424
		l-1.569-9.193c-0.049-0.28,0.134-0.547,0.408-0.595l8.924-1.524c0.274-0.049,0.535,0.145,0.584,0.427L778.884,254.108z"/>
	<path fill="#D77228" d="M687.044,225.189c-4.265,3.643-4.771,10.059-1.123,14.327c3.643,4.268,10.059,4.772,14.327,1.129
		c4.266-3.647,4.77-10.062,1.125-14.33C697.729,222.048,691.313,221.543,687.044,225.189z"/>
	<polygon fill="#9D4D23" points="691.343,239.426 698.132,238.169 700.438,231.656 695.95,226.406 689.161,227.663 686.855,234.176 
			"/>
	<polygon fill="#A3A1A1" points="691.97,237.658 696.914,236.738 698.593,231.999 695.324,228.174 690.379,229.09 688.7,233.834 	
		"/>
	<path fill="#D77228" d="M696.148,224.164c-0.216,0.184-0.249,0.505-0.065,0.72l5.88,6.882c0.181,0.213,0.5,0.232,0.719,0.047
		l7.09-6.055c0.217-0.188,0.244-0.508,0.066-0.719l-5.88-6.885c-0.181-0.211-0.504-0.232-0.722-0.048L696.148,224.164z"/>
	<circle fill="#B5B5B6" cx="693.646" cy="232.915" r="3.357"/>
	<circle fill="#B5B5B6" cx="775.207" cy="262.436" r="3.36"/>
	<path fill="#D77228" d="M709.936,181.845c-9.983,7.04-17.188,15.324-17.303,23.179c-0.127,8.455,9.354,20.959,20.944,26.98
		C710.442,215.955,707.413,194.127,709.936,181.845z"/>
	<path fill="#F37421" d="M793.946,241.607c15.156-14.977-11.836-70.179-29.842-76.696c-18.007-6.518-71.703,18.272-72.021,39.824
		C691.636,235.217,772.511,262.783,793.946,241.607z"/>
	<circle fill="#B55F27" cx="786.461" cy="213.389" r="1.964"/>
	<path fill="#E2E41A" d="M787.631,213.812c-0.232,0.646-0.948,0.981-1.594,0.748c-0.646-0.233-0.98-0.949-0.746-1.597
		c0.233-0.645,0.948-0.98,1.592-0.744C787.531,212.452,787.865,213.163,787.631,213.812z"/>
	<path opacity="0.2" fill="#FFFFFF" d="M778.983,245.322c0,0,20.407-3.119,16.029-17.906
		C790.636,212.629,794.761,241.832,778.983,245.322z"/>
	<path opacity="0.2" fill="#FFFFFF" d="M773.731,181.027c0,0-5.564-19.88-19.714-13.744
		C739.871,173.42,768.361,165.786,773.731,181.027z"/>
</g>
<g>
	<path fill="#D77228" d="M643.398,259.075l65.995,25.984c0.945,0.372,1.988-0.046,2.341-0.934l3.097-7.872
		c0.35-0.887-0.13-1.905-1.074-2.274l-24.966-9.831l-0.266,0.682c-0.105,0.265-0.406,0.395-0.671,0.29l-15.105-5.947
		c-0.267-0.106-0.396-0.404-0.291-0.673l0.267-0.678l-24.965-9.831c-0.942-0.37-1.987,0.048-2.337,0.935l-3.102,7.871
		C641.974,257.686,642.455,258.703,643.398,259.075z"/>
	<circle fill="#D87328" cx="640.987" cy="243.513" r="10.163"/>
	<polygon fill="#9D4D23" points="643.563,237.102 647.823,242.537 645.248,248.946 638.408,249.922 634.148,244.486 
		636.726,238.077 	"/>
	<polygon fill="#A2A0A0" points="642.864,238.845 645.966,242.803 644.091,247.471 639.111,248.181 636.005,244.223 
		637.883,239.552 	"/>
	<path fill="#D77228" d="M637.078,251.736c-0.041-0.286,0.148-0.548,0.423-0.587l8.965-1.277c0.273-0.038,0.529,0.159,0.569,0.44
		l1.315,9.232c0.04,0.281-0.15,0.544-0.426,0.584l-8.963,1.275c-0.274,0.041-0.532-0.158-0.571-0.443L637.078,251.736z"/>
	<path fill="#D77228" d="M728.078,283.198c4.365-3.524,5.051-9.923,1.522-14.29c-3.524-4.367-9.923-5.051-14.291-1.527
		c-4.364,3.527-5.048,9.927-1.522,14.294C717.31,286.041,723.709,286.724,728.078,283.198z"/>
	<polygon fill="#9D4D23" points="724.178,268.848 717.357,269.915 714.87,276.361 719.21,281.734 726.032,280.666 728.518,274.22 	
		"/>
	<polygon fill="#A3A1A1" points="723.501,270.596 718.534,271.378 716.725,276.068 719.884,279.984 724.853,279.205 726.664,274.51 
			"/>
	<path fill="#D77228" d="M718.95,283.97c0.221-0.178,0.262-0.498,0.084-0.718l-5.684-7.043c-0.177-0.218-0.495-0.246-0.719-0.067
		l-7.256,5.856c-0.223,0.182-0.258,0.5-0.087,0.716l5.688,7.046c0.174,0.216,0.495,0.246,0.719,0.067L718.95,283.97z"/>
	<path fill="#B5B5B6" d="M718.57,274.061c0.678-1.727,2.628-2.573,4.353-1.895c1.727,0.679,2.578,2.629,1.896,4.355
		c-0.68,1.726-2.628,2.571-4.353,1.896C718.737,277.736,717.89,275.787,718.57,274.061z"/>
	<path fill="#B5B5B6" d="M637.859,242.282c0.683-1.727,2.631-2.573,4.357-1.896c1.728,0.682,2.574,2.63,1.895,4.358
		c-0.679,1.726-2.629,2.574-4.355,1.894C638.03,245.96,637.183,244.007,637.859,242.282z"/>
	<path fill="#D77228" d="M703.991,325.888c10.175-6.761,17.606-14.839,17.94-22.688c0.362-8.448-8.768-21.213-20.187-27.553
		C704.433,291.777,706.854,313.681,703.991,325.888z"/>
	<path fill="#F37421" d="M621.675,263.812c-15.566,14.55,9.879,70.482,27.697,77.496c17.817,7.017,72.183-16.271,73.1-37.805
		C723.768,273.047,643.692,243.242,621.675,263.812z"/>
	<path fill="#B55F27" d="M626.545,291.509c0.399-1.008,1.536-1.503,2.546-1.104c1.01,0.396,1.505,1.537,1.109,2.543
		c-0.398,1.01-1.539,1.505-2.55,1.109C626.641,293.658,626.149,292.519,626.545,291.509z"/>
	<path fill="#E2E41A" d="M627.214,291.773c0.251-0.641,0.976-0.955,1.614-0.703c0.641,0.251,0.954,0.976,0.702,1.616
		c-0.251,0.639-0.977,0.955-1.612,0.7C627.276,293.137,626.961,292.415,627.214,291.773z"/>
	<path opacity="0.2" fill="#FFFFFF" d="M636.735,260.516c0,0-20.486,2.55-16.521,17.453S620.866,263.566,636.735,260.516z"/>
	<path opacity="0.2" fill="#FFFFFF" d="M640.196,324.932c0,0,5.01,20.028,19.324,14.288
		C673.833,333.478,645.14,340.316,640.196,324.932z"/>
</g>
</svg>
