<?xml version="1.0" encoding="utf-8"?>
<!-- Generator: Adobe Illustrator 16.0.0, SVG Export Plug-In . SVG Version: 6.00 Build 0)  -->
<!DOCTYPE svg PUBLIC "-//W3C//DTD SVG 1.1//EN" "http://www.w3.org/Graphics/SVG/1.1/DTD/svg11.dtd">
<svg version="1.1" id="Layer_1" xmlns="http://www.w3.org/2000/svg" xmlns:xlink="http://www.w3.org/1999/xlink" x="0px" y="0px"
	 width="24px" height="24px" viewBox="0 0 24 24" enable-background="new 0 0 24 24" xml:space="preserve">
<path fill="#824BA0" d="M12,3c5.514,0,10,3.592,10,8.007c0,4.917-5.145,7.961-9.91,7.961c-1.937,0-3.384-0.396-4.394-0.644
	c-1,0.613-1.594,1.037-4.272,1.82c0.535-1.373,0.722-2.748,0.601-4.267C3.188,14.878,2,13.479,2,11.006C2,6.592,6.486,3,12,3z M12,1
	C5.662,1,0,5.226,0,11.007c0,2.05,0.739,4.063,2.047,5.625c0.055,1.83-1.023,4.456-1.993,6.368c2.603-0.47,6.301-1.508,7.979-2.536
	c1.417,0.345,2.774,0.503,4.059,0.503c7.084,0,11.91-4.837,11.91-9.961C24,5.195,18.299,1,12,1z M7.551,11.151
	c0.246,0.277,0.369,0.621,0.369,1.034c0,0.529-0.208,0.958-0.624,1.29c-0.416,0.33-0.996,0.494-1.74,0.494
	c-0.637,0-1.201-0.123-1.69-0.367L4.14,12.52c0.494,0.248,0.993,0.375,1.501,0.375c0.293,0,0.521-0.057,0.686-0.168
	c0.315-0.213,0.334-0.646,0.023-0.892c-0.149-0.117-0.404-0.236-0.769-0.357c-1.097-0.366-1.645-0.937-1.645-1.716
	c0-0.503,0.202-0.917,0.604-1.243c0.404-0.325,0.943-0.488,1.614-0.488c0.586,0,1.096,0.099,1.535,0.298L7.39,9.378
	c-0.401-0.187-0.82-0.28-1.254-0.28c-0.267,0-0.476,0.052-0.627,0.153c-0.299,0.204-0.293,0.57-0.035,0.787
	c0.126,0.107,0.428,0.246,0.91,0.416C6.916,10.641,7.304,10.874,7.551,11.151z M19.756,11.13c-0.249-0.28-0.645-0.518-1.181-0.706
	c-0.476-0.168-0.776-0.307-0.899-0.41c-0.242-0.205-0.249-0.545,0.032-0.738c0.146-0.099,0.353-0.148,0.608-0.148
	c0.465,0,0.871,0.104,1.273,0.295l0.316-1.111L19.885,8.3C19.443,8.101,18.923,8,18.335,8c-0.675,0-1.226,0.166-1.632,0.495
	c-0.41,0.33-0.618,0.757-0.618,1.267c0,0.791,0.562,1.377,1.67,1.745c0.356,0.122,0.612,0.239,0.757,0.353
	c0.293,0.231,0.28,0.637-0.021,0.841c-0.157,0.107-0.382,0.162-0.667,0.162c-0.551,0-1.042-0.146-1.522-0.39l-0.289,1.147
	c0.55,0.272,1.121,0.38,1.728,0.38c0.75,0,1.341-0.168,1.76-0.502c0.422-0.334,0.636-0.775,0.636-1.313
	C20.134,11.767,20.007,11.413,19.756,11.13z M13.111,8.125l-1.229,3.967L10.87,8.125H9.079l-0.366,5.75h1.229l0.204-4.642h0.018
	c0,0,0.702,2.878,1.178,4.547h1.031c0.794-2.419,1.261-3.938,1.398-4.547h0.025c0,0.813,0.045,2.36,0.137,4.642h1.299l-0.311-5.75
	H13.111z"/>
</svg>
