<?xml version="1.0" encoding="utf-8"?>
<!-- Generator: Adobe Illustrator 16.0.0, SVG Export Plug-In . SVG Version: 6.00 Build 0)  -->
<!DOCTYPE svg PUBLIC "-//W3C//DTD SVG 1.1//EN" "http://www.w3.org/Graphics/SVG/1.1/DTD/svg11.dtd">
<svg version="1.1" id="Layer_1" xmlns="http://www.w3.org/2000/svg" xmlns:xlink="http://www.w3.org/1999/xlink" x="0px" y="0px"
	 width="24px" height="24px" viewBox="0 0 24 24" enable-background="new 0 0 24 24" xml:space="preserve">
<path fill="#824BA0" d="M9.762,1.322L12.605,0l4.041,7.89L13.92,9.231c-0.537,1.259,2.159,6.289,3.297,6.373
	c0.092-0.059,2.674-1.328,2.674-1.328L24,22.208c0,0-2.764,1.354-2.854,1.396C13.285,27.193,2.045,5.345,9.762,1.322z M11.691,2.596
	L10.668,3.1c-5.293,2.762,4.178,21.185,9.648,18.686l0.972-0.474l-2.271-4.384l-1.026,0.5c-3.163,1.548-8.262-8.22-5.056-9.938
	l1.008-0.497L11.691,2.596z M10.932,20.979C9.458,22.42,7.018,22.686,6.328,21.5c-0.47-0.809-0.311-1.729-0.127-2.793
	c0.201-1.161,0.429-2.479-0.295-3.71C4.687,12.92,2.009,13.014,0,14.326l0.956,1.463c0.829-0.542,1.784-0.775,2.493-0.609
	c1.653,0.389,1.151,2.526,1.03,3.229c-0.212,1.223-0.45,2.61,0.337,3.968c1.331,2.294,5.054,2.047,7.29-0.091
	C11.709,21.879,11.317,21.445,10.932,20.979z"/>
</svg>
