<?xml version="1.0" encoding="utf-8"?>
<!-- Generator: Adobe Illustrator 16.0.0, SVG Export Plug-In . SVG Version: 6.00 Build 0)  -->
<!DOCTYPE svg PUBLIC "-//W3C//DTD SVG 1.1//EN" "http://www.w3.org/Graphics/SVG/1.1/DTD/svg11.dtd">
<svg version="1.1" id="Layer_1" xmlns="http://www.w3.org/2000/svg" xmlns:xlink="http://www.w3.org/1999/xlink" x="0px" y="0px"
	 width="1633.221px" height="1781.695px" viewBox="0 0 1633.221 1781.695" enable-background="new 0 0 1633.221 1781.695"
	 xml:space="preserve">
<path fill="#A9DFF2" d="M742.373,445.424c-271.175,400.733-445.424,651.322-445.424,895.055
	c0,243.73,199.258,441.217,445.424,441.217c246.205,0,445.423-197.486,445.423-441.217
	C1187.796,1096.746,1013.51,846.157,742.373,445.424z"/>
<path fill="#C8E9FA" d="M740.818,730.417c26.131,40.382,57.233,110.706,57.233,184.867c0,217.562-222.712,253.305-222.712,120.775
	C575.339,945.226,686.045,811.027,740.818,730.417z"/>
<path fill="#A9DFF2" d="M562.72,446.15C517.201,324.495,423.461,186.932,296.949,0C116.111,267.186,0,434.296,0,596.652
	c0,158.047,125.824,285.859,283.756,292.857C354.182,757.746,449.668,613.401,562.72,446.15z"/>
<path fill="#C8E9FA" d="M185.593,393.838c0-60.561,73.804-150.03,110.311-203.783c17.425,26.857,38.164,73.766,38.164,123.21
	C334.068,458.323,185.593,482.109,185.593,393.838z"/>
<path fill="#A9DFF2" d="M1336.271,222.712c-126.651,187.148-220.468,324.865-265.987,446.622
	c105.046,163.439,183.057,304.521,226.702,440.389c187.403,24.576,336.235-119.476,336.235-290.359
	C1633.221,657.008,1517.084,489.897,1336.271,222.712z"/>
<path fill="#C8E9FA" d="M1224.916,616.55c0-60.561,73.804-150.03,110.35-203.783c17.398,26.857,38.125,73.766,38.125,123.21
	C1373.39,681.035,1224.916,704.821,1224.916,616.55z"/>
</svg>
