<?xml version="1.0" encoding="utf-8"?>
<!-- Generator: Adobe Illustrator 16.0.0, SVG Export Plug-In . SVG Version: 6.00 Build 0)  -->
<!DOCTYPE svg PUBLIC "-//W3C//DTD SVG 1.1//EN" "http://www.w3.org/Graphics/SVG/1.1/DTD/svg11.dtd">
<svg version="1.1" id="Layer_1" xmlns="http://www.w3.org/2000/svg" xmlns:xlink="http://www.w3.org/1999/xlink" x="0px" y="0px"
	 width="24px" height="24px" viewBox="0 0 24 24" enable-background="new 0 0 24 24" xml:space="preserve">
<path fill="#824BA0" d="M20.422,7.516c-0.178-3.233-3.031-5.778-6.432-5.492C12.902,0.785,11.297,0,9.5,0
	C6.328,0,3.746,2.443,3.578,5.516C1.545,5.875,0,7.621,0,9.722C0,12.084,1.949,14,4.354,14H5.68c0.771,1.198,2.124,2,3.674,2h10.291
	C22.051,16,24,14.084,24,11.722C24,9.621,22.455,7.875,20.422,7.516z M5.027,12H4.354C3.057,12,2,10.978,2,9.722
	C2,7.604,4.104,7.125,5.488,7.21C5.438,5.854,5.625,2,9.5,2c0.967,0,1.714,0.25,2.29,0.644C9.967,3.566,8.694,5.39,8.578,7.516
	C6.556,7.874,4.881,9.643,5.027,12L5.027,12z M19.645,14H9.354C8.057,14,7,12.979,7,11.722c0-2.118,2.104-2.597,3.488-2.512
	C10.438,7.854,10.625,4,14.5,4c3.771,0,4.229,3.771,4.012,5.209C20.021,9.104,22,9.646,22,11.722C22,12.979,20.943,14,19.645,14z
	 M6.869,20.713l-1.41-1.41L7.762,17l1.41,1.41L6.869,20.713z M3.569,24l-1.41-1.396L4.462,20.3l1.41,1.41L3.569,24z M11.822,20.713
	l-1.41-1.41L12.715,17l1.41,1.41L11.822,20.713z M8.522,24l-1.41-1.396L9.415,20.3l1.41,1.41L8.522,24z M16.697,20.713l-1.41-1.41
	L17.59,17L19,18.41L16.697,20.713z M13.396,24l-1.412-1.396l2.303-2.304l1.41,1.41L13.396,24z"/>
</svg>
