<?xml version="1.0" encoding="utf-8"?>
<!-- Generator: Adobe Illustrator 16.0.0, SVG Export Plug-In . SVG Version: 6.00 Build 0)  -->
<!DOCTYPE svg PUBLIC "-//W3C//DTD SVG 1.1//EN" "http://www.w3.org/Graphics/SVG/1.1/DTD/svg11.dtd">
<svg version="1.1" id="Layer_1" xmlns="http://www.w3.org/2000/svg" xmlns:xlink="http://www.w3.org/1999/xlink" x="0px" y="0px"
	 width="649.172px" height="578.983px" viewBox="0 0 649.172 578.983" enable-background="new 0 0 649.172 578.983"
	 xml:space="preserve">
<path fill="none" stroke="#000000" stroke-width="10" stroke-miterlimit="10" d="M530.005,435.923H119.167
	c-5.871,0-10.626,4.469-10.626,9.984v49.012c0,5.516,4.755,9.986,10.626,9.986h155.407v-4.23c0-1.658,1.343-3,3-3h94.024
	c1.657,0,3,1.342,3,3v4.23h155.407c5.87,0,10.626-4.471,10.626-9.986v-49.012C540.631,440.392,535.875,435.923,530.005,435.923z"/>
<path fill="none" stroke="#000000" stroke-width="10" stroke-miterlimit="10" d="M637.025,363.89
	C690.057,252.446,434.208,5,323.289,5C212.365,5-31.212,245.882,9.55,363.89C67.188,530.785,562.029,521.501,637.025,363.89z"/>
<path fill="#BC6328" d="M530.005,435.923H119.167c-5.871,0-10.626,4.469-10.626,9.984v49.012c0,5.515,4.755,9.986,10.626,9.986
	h155.407v-4.231c0-1.657,1.343-3,3-3h94.024c1.657,0,3,1.343,3,3v4.231h155.407c5.87,0,10.626-4.472,10.626-9.986v-49.012
	C540.631,440.392,535.875,435.923,530.005,435.923z"/>
<path fill="none" stroke="#000000" stroke-width="10" stroke-miterlimit="10" d="M146.262,440.281l-45.601-25.902
	c-1.398-0.795-3.196-0.271-4.015,1.17L73.53,456.247c-20.445,0.045-40.293,10.735-51.114,29.786
	c-16.057,28.268-6.154,64.201,22.115,80.26c28.267,16.055,64.203,6.158,80.26-22.111c10.821-19.05,9.837-41.572-0.595-59.154
	l23.117-40.699C148.131,442.886,147.661,441.076,146.262,440.281z"/>
<path fill="none" stroke="#101010" stroke-width="10" stroke-miterlimit="10" d="M604.869,566.292
	c-28.266,16.055-64.203,6.158-80.26-22.111c-10.82-19.05-9.837-41.571,0.595-59.154l-23.116-40.699
	c-0.818-1.441-0.348-3.252,1.051-4.047l45.6-25.902c1.398-0.795,3.197-0.271,4.016,1.17l23.116,40.698
	c20.445,0.044,40.293,10.734,51.114,29.786C643.041,514.3,633.138,550.234,604.869,566.292z"/>
<path fill="#D87328" stroke="#000000" stroke-width="6" stroke-miterlimit="10" d="M637.025,364.272
	C690.057,252.828,434.208,5.382,323.289,5.382c-110.923,0-354.501,240.882-313.739,358.89
	C67.188,531.167,562.029,521.884,637.025,364.272z"/>
<path fill="#D87328" d="M627.212,485.6c16.057,28.268,6.154,64.202-22.115,80.26c-28.267,16.056-64.203,6.158-80.26-22.11
	c-16.058-28.271-6.154-64.204,22.112-80.261C575.219,447.432,611.154,457.33,627.212,485.6z"/>
<polygon fill="#9D4D23" points="575.743,554.68 541.242,534.434 541.519,494.428 576.306,474.668 610.81,494.917 610.53,534.92 "/>
<path fill="#C16628" stroke="#A55325" stroke-width="2" stroke-miterlimit="10" d="M491.194,348.215c0,5.517-4.47,9.985-9.985,9.985
	H167.963c-5.517,0-9.986-4.469-9.986-9.985V223.953c0-5.514,4.469-9.985,9.986-9.985h313.245c5.516,0,9.985,4.471,9.985,9.985
	V348.215z"/>
<circle fill="#B55F27" cx="540.632" cy="225.338" r="11.371"/>
<circle fill="#E2E41A" cx="540.631" cy="225.338" r="7.212"/>
<g>
	<polygon fill="#D77228" points="185.994,318.675 185.994,279.57 171.949,279.57 171.949,274.332 205.737,274.332 205.737,279.57 
		191.633,279.57 191.633,318.675 	"/>
	<path fill="#D77228" d="M226.716,308.332l5.409,0.689c-0.853,3.295-2.433,5.844-4.734,7.664c-2.312,1.809-5.262,2.714-8.844,2.714
		c-4.519,0-8.1-1.446-10.743-4.335c-2.649-2.89-3.969-6.947-3.969-12.174c0-5.408,1.339-9.603,4.01-12.586
		c2.679-2.984,6.144-4.479,10.411-4.479c4.133,0,7.507,1.466,10.116,4.389c2.62,2.92,3.931,7.039,3.931,12.338
		c0,0.325-0.01,0.812-0.029,1.457h-23.031c0.189,3.529,1.151,6.233,2.881,8.1c1.726,1.879,3.87,2.821,6.452,2.821
		c1.916,0,3.553-0.526,4.912-1.58C224.85,312.304,225.922,310.633,226.716,308.332L226.716,308.332z M209.533,299.526h17.242
		c-0.228-2.694-0.892-4.729-1.976-6.069c-1.666-2.1-3.83-3.152-6.482-3.152c-2.399,0-4.424,0.84-6.062,2.51
		C210.616,294.484,209.712,296.727,209.533,299.526L209.533,299.526z"/>
	<polygon fill="#D77228" points="239.914,318.675 239.914,274.332 245.143,274.332 245.143,318.675 	"/>
	<path fill="#D77228" d="M275.72,308.332l5.409,0.689c-0.852,3.295-2.431,5.844-4.731,7.664c-2.315,1.809-5.265,2.714-8.85,2.714
		c-4.514,0-8.097-1.446-10.736-4.335c-2.651-2.89-3.972-6.947-3.972-12.174c0-5.408,1.34-9.603,4.008-12.586
		c2.682-2.984,6.146-4.479,10.416-4.479c4.127,0,7.501,1.466,10.114,4.389c2.619,2.92,3.93,7.039,3.93,12.338
		c0,0.325-0.01,0.812-0.029,1.457h-23.03c0.189,3.529,1.15,6.233,2.881,8.1c1.727,1.879,3.871,2.821,6.452,2.821
		c1.915,0,3.552-0.526,4.911-1.58C273.852,312.304,274.927,310.633,275.72,308.332L275.72,308.332z M258.538,299.526h17.241
		c-0.228-2.694-0.893-4.729-1.973-6.069c-1.671-2.1-3.833-3.152-6.481-3.152c-2.405,0-4.428,0.84-6.068,2.51
		C259.621,294.484,258.717,296.727,258.538,299.526L258.538,299.526z"/>
	<path fill="#D77228" d="M286.943,309.085l5.17-0.846c0.287,2.158,1.103,3.811,2.432,4.967c1.319,1.146,3.176,1.724,5.568,1.724
		c2.402,0,4.189-0.521,5.351-1.527c1.161-1.021,1.749-2.224,1.749-3.583c0-1.24-0.518-2.201-1.552-2.912
		c-0.714-0.488-2.499-1.096-5.351-1.84c-3.828-1.01-6.5-1.879-7.979-2.619c-1.482-0.736-2.611-1.756-3.379-3.057
		c-0.762-1.303-1.15-2.736-1.15-4.307c0-1.434,0.318-2.76,0.953-3.976c0.627-1.229,1.492-2.238,2.571-3.042
		c0.815-0.621,1.927-1.157,3.328-1.592c1.407-0.433,2.915-0.65,4.524-0.65c2.422,0,4.547,0.371,6.382,1.092
		c1.835,0.725,3.188,1.707,4.06,2.945c0.873,1.247,1.469,2.898,1.801,4.976l-5.113,0.731c-0.24-1.651-0.914-2.938-2.025-3.867
		c-1.112-0.93-2.691-1.398-4.725-1.398c-2.403,0-4.119,0.417-5.144,1.242c-1.03,0.825-1.551,1.794-1.551,2.898
		c0,0.716,0.221,1.343,0.647,1.912c0.43,0.588,1.092,1.066,2.006,1.455c0.525,0.196,2.062,0.66,4.624,1.386
		c3.704,1.03,6.284,1.866,7.743,2.529c1.471,0.65,2.621,1.609,3.456,2.856c0.833,1.252,1.248,2.799,1.248,4.658
		c0,1.816-0.517,3.521-1.524,5.13c-1.024,1.603-2.493,2.841-4.408,3.719c-1.918,0.876-4.092,1.309-6.515,1.309
		c-4.018,0-7.076-0.867-9.181-2.6C288.856,315.064,287.517,312.493,286.943,309.085L286.943,309.085z"/>
	<path fill="#D77228" d="M320.14,330.982V286.56h4.76v4.166c1.127-1.629,2.396-2.856,3.816-3.672
		c1.408-0.816,3.124-1.229,5.141-1.229c2.642,0,4.963,0.711,6.979,2.111c2.025,1.418,3.543,3.41,4.566,5.981
		c1.031,2.571,1.547,5.39,1.547,8.454c0,3.284-0.565,6.246-1.707,8.878c-1.131,2.634-2.777,4.647-4.942,6.054
		c-2.162,1.391-4.437,2.095-6.82,2.095c-1.745,0-3.306-0.384-4.694-1.146c-1.391-0.765-2.522-1.735-3.416-2.899v15.629H320.14
		L320.14,330.982z M324.875,302.8c0,4.127,0.802,7.183,2.411,9.166c1.609,1.969,3.562,2.964,5.845,2.964
		c2.323,0,4.32-1.021,5.979-3.078c1.656-2.044,2.489-5.214,2.489-9.508c0-4.099-0.813-7.154-2.432-9.198
		c-1.618-2.036-3.556-3.057-5.795-3.057c-2.236,0-4.21,1.086-5.926,3.251C325.728,295.508,324.875,298.668,324.875,302.8
		L324.875,302.8z"/>
	<path fill="#D77228" d="M352.631,302.611c0-5.945,1.59-10.355,4.774-13.213c2.65-2.376,5.887-3.572,9.71-3.572
		c4.248,0,7.719,1.441,10.411,4.345c2.701,2.891,4.041,6.889,4.041,11.984c0,4.142-0.6,7.394-1.789,9.759
		c-1.189,2.373-2.928,4.213-5.199,5.523c-2.282,1.309-4.767,1.962-7.464,1.962c-4.321,0-7.814-1.433-10.482-4.325
		C353.963,312.194,352.631,308.042,352.631,302.611L352.631,302.611z M358.01,302.611c0,4.121,0.866,7.197,2.592,9.241
		c1.729,2.058,3.899,3.078,6.514,3.078c2.597,0,4.765-1.034,6.49-3.088c1.717-2.054,2.582-5.194,2.582-9.407
		c0-3.973-0.865-6.988-2.601-9.033c-1.739-2.045-3.892-3.064-6.472-3.064c-2.614,0-4.785,1.02-6.514,3.055
		C358.876,295.427,358.01,298.501,358.01,302.611L358.01,302.611z"/>
	<path fill="#D77228" d="M388.976,318.675V286.56h4.705v4.863c1.201-2.272,2.312-3.781,3.335-4.506
		c1.012-0.721,2.134-1.092,3.354-1.092c1.77,0,3.554,0.588,5.381,1.755l-1.808,5.058c-1.271-0.793-2.549-1.187-3.828-1.187
		c-1.151,0-2.175,0.36-3.09,1.073c-0.913,0.724-1.559,1.712-1.946,2.983c-0.585,1.931-0.872,4.047-0.872,6.348v16.819H388.976
		L388.976,318.675z"/>
	<path fill="#D77228" d="M471.632,300.832l-0.036,1.24l-0.183,9.64c3.33,0,5.807-14.383,5.807-17.087v-6.206
		c0-25.856-32.557-55.868-58.972-55.868c-1.628,0.474-3.256,0.62-2.593,2.401c4.021,1.93,6.634,2.155,9.793,3.432
		C452.295,249.565,471.632,276.679,471.632,300.832L471.632,300.832z"/>
	<path fill="#D77228" d="M446.802,291.52c-0.479-21.034-28.338-36.039-32.061-31.203c11.462,4.976,27.097,21.444,27.097,39.274
		v1.861c0,4.253-0.381,6.488-0.436,8.906C445.19,307.103,446.912,300.827,446.802,291.52L446.802,291.52z"/>
</g>
<polygon fill="#A2A0A0" points="575.817,543.812 550.691,529.061 550.892,499.93 576.231,485.539 601.357,500.283 601.156,529.419 
	"/>
<path fill="#D77228" d="M579.652,462.071c0.818,1.44,0.348,3.253-1.052,4.047L533,492.02c-1.398,0.794-3.195,0.271-4.015-1.17
	l-26.67-46.954c-0.818-1.441-0.348-3.253,1.051-4.048l45.601-25.901c1.398-0.795,3.196-0.271,4.015,1.17L579.652,462.071z"/>
<path fill="#C16428" d="M22.416,485.6c-16.057,28.268-6.154,64.202,22.115,80.26c28.267,16.056,64.203,6.158,80.26-22.11
	c16.058-28.271,6.154-64.204-22.112-80.261C74.409,447.432,38.474,457.33,22.416,485.6z"/>
<polygon fill="#9D4D23" points="73.885,554.68 108.386,534.434 108.109,494.428 73.322,474.668 38.818,494.917 39.098,534.92 "/>
<polygon fill="#A3A1A1" points="73.811,543.812 98.937,529.061 98.736,499.93 73.397,485.539 48.271,500.283 48.472,529.419 "/>
<path fill="#C16428" d="M69.976,462.071c-0.818,1.44-0.348,3.253,1.052,4.047l45.601,25.902c1.398,0.794,3.195,0.271,4.015-1.17
	l26.67-46.954c0.818-1.441,0.348-3.253-1.051-4.048l-45.601-25.901c-1.398-0.795-3.196-0.271-4.015,1.17L69.976,462.071z"/>
<circle fill="#B5B5B6" cx="73.604" cy="514.674" r="19.453"/>
<circle fill="#B5B5B6" cx="576.024" cy="514.675" r="19.453"/>
<path fill="#C16428" d="M61.644,204.404c-40.488,58.037-63.401,117.36-48.546,160.365c15.984,46.285,92.262,95.707,167.262,105.646
	C131.647,389.181,72.112,276.271,61.644,204.404z"/>
<path opacity="0.2" fill="#FFFFFF" d="M562.86,414.007c0,0,105-57.218,52-129.125C561.86,212.976,641.914,363.905,562.86,414.007z"
	/>
<path opacity="0.2" fill="#FFFFFF" d="M407.501,74.158c0,0-69.511-97.298-134.471-35.981
	C208.071,99.494,348.196,1.753,407.501,74.158z"/>
</svg>
