<?xml version="1.0" encoding="utf-8"?>
<!-- Generator: Adobe Illustrator 16.0.0, SVG Export Plug-In . SVG Version: 6.00 Build 0)  -->
<!DOCTYPE svg PUBLIC "-//W3C//DTD SVG 1.1//EN" "http://www.w3.org/Graphics/SVG/1.1/DTD/svg11.dtd">
<svg version="1.1" id="Layer_1" xmlns="http://www.w3.org/2000/svg" xmlns:xlink="http://www.w3.org/1999/xlink" x="0px" y="0px"
	 width="491.785px" height="158.572px" viewBox="0 0 491.785 158.572" enable-background="new 0 0 491.785 158.572"
	 xml:space="preserve">
<g>
	<polygon fill="#FFFFFF" points="22.628,138.746 22.628,75.745 0,75.745 0,67.312 54.435,67.312 54.435,75.745 31.711,75.745 
		31.711,138.746 22.628,138.746 	"/>
	<path fill="#FFFFFF" d="M88.23,122.082l8.715,1.113c-1.375,5.307-3.918,9.414-7.627,12.342c-3.726,2.91-8.476,4.373-14.249,4.373
		c-7.276,0-13.049-2.328-17.303-6.984c-4.27-4.658-6.396-11.193-6.396-19.609c0-8.715,2.159-15.469,6.46-20.275
		c4.318-4.807,9.898-7.217,16.775-7.217c6.652,0,12.089,2.361,16.295,7.068c4.221,4.707,6.333,11.342,6.333,19.875
		c0,0.531-0.016,1.314-0.048,2.346H60.085c0.304,5.688,1.855,10.045,4.638,13.055c2.782,3.027,6.236,4.541,10.394,4.541
		c3.086,0,5.725-0.848,7.916-2.545C85.224,128.484,86.951,125.789,88.23,122.082L88.23,122.082z M60.549,107.895h27.777
		c-0.368-4.342-1.439-7.617-3.183-9.779c-2.686-3.377-6.172-5.074-10.442-5.074c-3.87,0-7.132,1.348-9.771,4.043
		C62.292,99.777,60.837,103.387,60.549,107.895L60.549,107.895z"/>
	<polygon fill="#FFFFFF" points="109.488,138.746 109.488,67.312 117.916,67.312 117.916,138.746 109.488,138.746 	"/>
	<path fill="#FFFFFF" d="M167.175,122.082l8.716,1.113c-1.375,5.307-3.918,9.414-7.628,12.342c-3.726,2.91-8.476,4.373-14.249,4.373
		c-7.276,0-13.049-2.328-17.302-6.984c-4.27-4.658-6.397-11.193-6.397-19.609c0-8.715,2.159-15.469,6.46-20.275
		c4.318-4.807,9.898-7.217,16.775-7.217c6.652,0,12.089,2.361,16.295,7.068c4.222,4.707,6.333,11.342,6.333,19.875
		c0,0.531-0.016,1.314-0.048,2.346h-37.1c0.304,5.688,1.855,10.045,4.638,13.055c2.782,3.027,6.236,4.541,10.395,4.541
		c3.086,0,5.725-0.848,7.916-2.545C164.168,128.484,165.896,125.789,167.175,122.082L167.175,122.082z M139.494,107.895h27.777
		c-0.368-4.342-1.439-7.617-3.182-9.779c-2.687-3.377-6.173-5.074-10.442-5.074c-3.87,0-7.132,1.348-9.771,4.043
		C141.237,99.777,139.782,103.387,139.494,107.895L139.494,107.895z"/>
	<path fill="#FFFFFF" d="M185.251,123.295l8.332-1.363c0.463,3.477,1.774,6.137,3.917,8c2.126,1.846,5.117,2.777,8.971,2.777
		c3.87,0,6.749-0.832,8.619-2.461c1.871-1.646,2.814-3.576,2.814-5.771c0-1.996-0.832-3.543-2.495-4.691
		c-1.151-0.781-4.03-1.762-8.619-2.959c-6.173-1.631-10.474-3.027-12.857-4.225c-2.383-1.182-4.206-2.828-5.438-4.924
		c-1.231-2.096-1.855-4.408-1.855-6.936c0-2.312,0.512-4.441,1.536-6.402c1.007-1.98,2.398-3.609,4.142-4.906
		c1.312-0.998,3.103-1.863,5.357-2.562c2.271-0.697,4.702-1.047,7.292-1.047c3.901,0,7.324,0.598,10.282,1.762
		s5.133,2.744,6.541,4.74c1.407,2.014,2.367,4.674,2.895,8.018l-8.236,1.18c-0.384-2.66-1.471-4.74-3.262-6.236
		s-4.333-2.246-7.612-2.246c-3.87,0-6.636,0.666-8.284,1.996c-1.663,1.33-2.495,2.895-2.495,4.674c0,1.148,0.352,2.162,1.04,3.078
		c0.688,0.947,1.759,1.713,3.23,2.344c0.847,0.316,3.326,1.064,7.452,2.229c5.964,1.664,10.122,3.012,12.473,4.076
		c2.367,1.047,4.222,2.594,5.565,4.605c1.343,2.014,2.015,4.508,2.015,7.502c0,2.928-0.832,5.672-2.462,8.266
		c-1.647,2.578-4.014,4.574-7.1,5.988s-6.589,2.111-10.49,2.111c-6.477,0-11.402-1.396-14.792-4.191
		C188.338,132.926,186.179,128.783,185.251,123.295L185.251,123.295z"/>
	<path fill="#FFFFFF" d="M238.732,158.572V87.004h7.675v6.719c1.808-2.627,3.854-4.605,6.142-5.92
		c2.271-1.314,5.037-1.979,8.283-1.979c4.254,0,7.996,1.146,11.242,3.408c3.262,2.279,5.709,5.49,7.355,9.631
		c1.663,4.141,2.495,8.682,2.495,13.621c0,5.289-0.912,10.062-2.751,14.303c-1.822,4.242-4.478,7.484-7.963,9.746
		c-3.486,2.246-7.148,3.377-10.986,3.377c-2.814,0-5.325-0.615-7.564-1.846c-2.238-1.23-4.062-2.795-5.501-4.674v25.182H238.732
		L238.732,158.572z M246.359,113.166c0,6.652,1.296,11.576,3.887,14.77c2.59,3.176,5.74,4.773,9.419,4.773
		c3.741,0,6.956-1.646,9.626-4.957c2.671-3.293,4.015-8.398,4.015-15.318c0-6.602-1.312-11.525-3.918-14.818
		c-2.606-3.275-5.726-4.922-9.339-4.922c-3.599,0-6.781,1.746-9.547,5.238C247.735,101.424,246.359,106.514,246.359,113.166
		L246.359,113.166z"/>
	<path fill="#FFFFFF" d="M291.077,112.867c0-9.58,2.56-16.682,7.692-21.289c4.27-3.824,9.482-5.754,15.64-5.754
		c6.844,0,12.44,2.328,16.774,7.002c4.35,4.656,6.509,11.094,6.509,19.309c0,6.67-0.96,11.908-2.878,15.717
		c-1.92,3.826-4.718,6.787-8.38,8.898c-3.678,2.113-7.676,3.16-12.025,3.16c-6.957,0-12.585-2.311-16.887-6.969
		C293.221,128.301,291.077,121.615,291.077,112.867L291.077,112.867z M299.745,112.867c0,6.637,1.391,11.592,4.174,14.885
		c2.782,3.311,6.284,4.957,10.49,4.957c4.189,0,7.676-1.664,10.458-4.973c2.767-3.311,4.158-8.367,4.158-15.152
		c0-6.402-1.392-11.26-4.19-14.553c-2.798-3.293-6.269-4.939-10.426-4.939c-4.206,0-7.708,1.646-10.49,4.924
		C301.136,101.291,299.745,106.248,299.745,112.867L299.745,112.867z"/>
	<path fill="#FFFFFF" d="M349.628,138.746V87.004h7.58v7.834c1.935-3.658,3.726-6.088,5.372-7.252
		c1.632-1.164,3.438-1.762,5.406-1.762c2.846,0,5.725,0.947,8.667,2.826l-2.91,8.15c-2.048-1.281-4.11-1.912-6.173-1.912
		c-1.855,0-3.503,0.582-4.974,1.729c-1.472,1.164-2.511,2.762-3.135,4.807c-0.943,3.111-1.406,6.52-1.406,10.229v27.094H349.628
		L349.628,138.746z"/>
	<path fill-rule="evenodd" clip-rule="evenodd" fill="#FFFFFF" d="M482.785,110l-0.058,1.998l-0.294,15.529
		c5.364,0,9.352-23.172,9.352-27.527V90c0-41.651-52.444-90-95-90c-2.622,0.761-5.244,0.996-4.176,3.867
		c6.475,3.112,10.688,3.472,15.778,5.531C451.636,27.411,482.785,71.088,482.785,110L482.785,110z"/>
	<path fill-rule="evenodd" clip-rule="evenodd" fill="#FFFFFF" d="M442.785,95c-0.769-33.886-45.654-58.058-51.649-50.269
		c18.464,8.017,43.65,34.548,43.65,63.269v3c0,6.85-0.612,10.449-0.703,14.352C440.188,120.107,442.961,109.99,442.785,95
		L442.785,95z"/>
</g>
</svg>
